<mxfile host="65bd71144e">
    <diagram id="VWqxGwnfvDx1dzRNnWZL" name="ページ1">
        <mxGraphModel dx="503" dy="946" grid="1" gridSize="10" guides="1" tooltips="1" connect="1" arrows="1" fold="1" page="1" pageScale="1" pageWidth="827" pageHeight="1169" math="0" shadow="0">
            <root>
                <mxCell id="0"/>
                <mxCell id="1" parent="0"/>
                <mxCell id="3" value="&lt;span style=&quot;color: rgb(0, 0, 0);&quot;&gt;«interface»&lt;/span&gt;&lt;br style=&quot;scrollbar-color: light-dark(#e2e2e2, #4b4b4b)&lt;br/&gt;&#x9;&#x9;&#x9;&#x9;&#x9;light-dark(#fbfbfb, var(--dark-panel-color));&quot;&gt;&lt;b style=&quot;scrollbar-color: light-dark(#e2e2e2, #4b4b4b)&lt;br/&gt;&#x9;&#x9;&#x9;&#x9;&#x9;light-dark(#fbfbfb, var(--dark-panel-color));&quot;&gt;ICalculator&lt;/b&gt;" style="swimlane;fontStyle=0;childLayout=stackLayout;horizontal=1;startSize=26;fillColor=none;horizontalStack=0;resizeParent=1;resizeParentMax=0;resizeLast=0;collapsible=1;marginBottom=0;whiteSpace=wrap;html=1;" vertex="1" parent="1">
                    <mxGeometry x="210" y="190" width="240" height="130" as="geometry"/>
                </mxCell>
                <mxCell id="4" value="+ add(int a, int b) : int" style="text;strokeColor=none;fillColor=none;align=left;verticalAlign=top;spacingLeft=4;spacingRight=4;overflow=hidden;rotatable=0;points=[[0,0.5],[1,0.5]];portConstraint=eastwest;whiteSpace=wrap;html=1;" vertex="1" parent="3">
                    <mxGeometry y="26" width="240" height="26" as="geometry"/>
                </mxCell>
                <mxCell id="5" value="+ subtract(int a, int b): int" style="text;strokeColor=none;fillColor=none;align=left;verticalAlign=top;spacingLeft=4;spacingRight=4;overflow=hidden;rotatable=0;points=[[0,0.5],[1,0.5]];portConstraint=eastwest;whiteSpace=wrap;html=1;" vertex="1" parent="3">
                    <mxGeometry y="52" width="240" height="26" as="geometry"/>
                </mxCell>
                <mxCell id="6" value="+ multiply(int a, int b) : int" style="text;strokeColor=none;fillColor=none;align=left;verticalAlign=top;spacingLeft=4;spacingRight=4;overflow=hidden;rotatable=0;points=[[0,0.5],[1,0.5]];portConstraint=eastwest;whiteSpace=wrap;html=1;" vertex="1" parent="3">
                    <mxGeometry y="78" width="240" height="26" as="geometry"/>
                </mxCell>
                <mxCell id="7" value="+ divide(int a, int b) : int" style="text;strokeColor=none;fillColor=none;align=left;verticalAlign=top;spacingLeft=4;spacingRight=4;overflow=hidden;rotatable=0;points=[[0,0.5],[1,0.5]];portConstraint=eastwest;whiteSpace=wrap;html=1;" vertex="1" parent="3">
                    <mxGeometry y="104" width="240" height="26" as="geometry"/>
                </mxCell>
                <mxCell id="8" value="&lt;b style=&quot;scrollbar-color: light-dark(#e2e2e2, #4b4b4b)&lt;br/&gt;&#x9;&#x9;&#x9;&#x9;&#x9;light-dark(#fbfbfb, var(--dark-panel-color));&quot;&gt;Calculator&lt;/b&gt;" style="swimlane;fontStyle=1;align=center;verticalAlign=top;childLayout=stackLayout;horizontal=1;startSize=26;horizontalStack=0;resizeParent=1;resizeParentMax=0;resizeLast=0;collapsible=1;marginBottom=0;whiteSpace=wrap;html=1;" vertex="1" collapsed="1" parent="1">
                    <mxGeometry x="280" y="450" width="100" height="30" as="geometry">
                        <mxRectangle x="280" y="440" width="160" height="86" as="alternateBounds"/>
                    </mxGeometry>
                </mxCell>
                <mxCell id="9" value="+ field: type" style="text;strokeColor=none;fillColor=none;align=left;verticalAlign=top;spacingLeft=4;spacingRight=4;overflow=hidden;rotatable=0;points=[[0,0.5],[1,0.5]];portConstraint=eastwest;whiteSpace=wrap;html=1;" vertex="1" parent="8">
                    <mxGeometry y="26" width="160" height="26" as="geometry"/>
                </mxCell>
                <mxCell id="10" value="" style="line;strokeWidth=1;fillColor=none;align=left;verticalAlign=middle;spacingTop=-1;spacingLeft=3;spacingRight=3;rotatable=0;labelPosition=right;points=[];portConstraint=eastwest;strokeColor=inherit;" vertex="1" parent="8">
                    <mxGeometry y="52" width="160" height="8" as="geometry"/>
                </mxCell>
                <mxCell id="11" value="+ method(type): type" style="text;strokeColor=none;fillColor=none;align=left;verticalAlign=top;spacingLeft=4;spacingRight=4;overflow=hidden;rotatable=0;points=[[0,0.5],[1,0.5]];portConstraint=eastwest;whiteSpace=wrap;html=1;" vertex="1" parent="8">
                    <mxGeometry y="60" width="160" height="26" as="geometry"/>
                </mxCell>
                <mxCell id="12" value="" style="endArrow=block;endSize=16;endFill=0;html=1;" edge="1" parent="1" source="8" target="3">
                    <mxGeometry width="160" relative="1" as="geometry">
                        <mxPoint x="280" y="490" as="sourcePoint"/>
                        <mxPoint x="440" y="490" as="targetPoint"/>
                    </mxGeometry>
                </mxCell>
                <mxCell id="13" value="&lt;b style=&quot;scrollbar-color: light-dark(#e2e2e2, #4b4b4b)&lt;br/&gt;&#x9;&#x9;&#x9;&#x9;&#x9;light-dark(#fbfbfb, var(--dark-panel-color));&quot;&gt;MockCalculator&lt;/b&gt;" style="swimlane;fontStyle=1;align=center;verticalAlign=top;childLayout=stackLayout;horizontal=1;startSize=26;horizontalStack=0;resizeParent=1;resizeParentMax=0;resizeLast=0;collapsible=1;marginBottom=0;whiteSpace=wrap;html=1;fillColor=#f8cecc;strokeColor=#b85450;" vertex="1" collapsed="1" parent="1">
                    <mxGeometry x="130" y="450" width="130" height="30" as="geometry">
                        <mxRectangle x="280" y="440" width="160" height="86" as="alternateBounds"/>
                    </mxGeometry>
                </mxCell>
                <mxCell id="14" value="+ field: type" style="text;strokeColor=none;fillColor=none;align=left;verticalAlign=top;spacingLeft=4;spacingRight=4;overflow=hidden;rotatable=0;points=[[0,0.5],[1,0.5]];portConstraint=eastwest;whiteSpace=wrap;html=1;" vertex="1" parent="13">
                    <mxGeometry y="26" width="160" height="26" as="geometry"/>
                </mxCell>
                <mxCell id="15" value="" style="line;strokeWidth=1;fillColor=none;align=left;verticalAlign=middle;spacingTop=-1;spacingLeft=3;spacingRight=3;rotatable=0;labelPosition=right;points=[];portConstraint=eastwest;strokeColor=inherit;" vertex="1" parent="13">
                    <mxGeometry y="52" width="160" height="8" as="geometry"/>
                </mxCell>
                <mxCell id="16" value="+ method(type): type" style="text;strokeColor=none;fillColor=none;align=left;verticalAlign=top;spacingLeft=4;spacingRight=4;overflow=hidden;rotatable=0;points=[[0,0.5],[1,0.5]];portConstraint=eastwest;whiteSpace=wrap;html=1;" vertex="1" parent="13">
                    <mxGeometry y="60" width="160" height="26" as="geometry"/>
                </mxCell>
                <mxCell id="17" value="" style="endArrow=block;endSize=16;endFill=0;html=1;exitX=0.5;exitY=0;exitDx=0;exitDy=0;" edge="1" parent="1" source="13" target="3">
                    <mxGeometry width="160" relative="1" as="geometry">
                        <mxPoint x="340" y="460" as="sourcePoint"/>
                        <mxPoint x="340" y="330" as="targetPoint"/>
                    </mxGeometry>
                </mxCell>
            </root>
        </mxGraphModel>
    </diagram>
</mxfile>